<svg width="509" height="472" viewBox="0 0 509 472" fill="none" xmlns="http://www.w3.org/2000/svg">
<g clip-path="url(#clip0_4_30)">
<path d="M488.482 187.1C488.482 268.982 437.373 338.574 366.192 363.94C337.541 374.092 306.887 376.763 276.984 371.714C274.147 371.237 271.329 370.69 268.531 370.07C264.741 369.242 260.995 368.289 257.294 367.212C180.873 345.078 124.861 272.82 124.861 187.1C124.861 83.7668 206.26 0 306.671 0C407.083 0 488.482 83.7667 488.482 187.1Z" fill="#E6E6E6"/>
<path d="M192.797 244.847C192.477 245.023 192.238 245.323 192.132 245.68C192.027 246.038 192.063 246.424 192.234 246.754L260.59 378.51C260.761 378.839 261.052 379.085 261.4 379.194C261.747 379.303 262.122 379.265 262.443 379.089L359.07 325.999C359.39 325.823 359.629 325.523 359.735 325.166C359.841 324.808 359.804 324.422 359.633 324.093L291.277 192.336C291.106 192.007 290.815 191.761 290.467 191.652C290.12 191.543 289.745 191.581 289.425 191.757L192.797 244.847Z" fill="#3F3D56"/>
<path d="M201.779 248.697L264.331 369.265L350.089 322.149L287.536 201.579L201.779 248.697ZM196.345 251.682L196.357 251.676L196.343 251.683L196.345 251.682Z" fill="white"/>
<path d="M223.401 261.952C222.069 262.684 221.785 264.821 222.768 266.715C223.751 268.609 225.634 269.555 226.966 268.823L289.774 234.315C291.106 233.583 291.39 231.446 290.407 229.552C289.425 227.658 287.542 226.712 286.209 227.444L223.401 261.952Z" fill="#6C63FF"/>
<path d="M231.14 276.868C229.807 277.6 229.524 279.737 230.506 281.631C231.489 283.525 233.372 284.471 234.704 283.739L297.512 249.23C298.845 248.498 299.128 246.362 298.146 244.468C297.163 242.574 295.28 241.628 293.948 242.36L231.14 276.868Z" fill="#6C63FF"/>
<path d="M238.878 291.784C237.546 292.516 237.262 294.653 238.245 296.547C239.227 298.441 241.111 299.387 242.443 298.655L305.251 264.146C306.583 263.414 306.867 261.277 305.884 259.384C304.902 257.49 303.018 256.543 301.686 257.275L238.878 291.784Z" fill="#6C63FF"/>
<path d="M246.617 306.7C245.284 307.432 245.001 309.569 245.983 311.462C246.966 313.356 248.849 314.303 250.181 313.571L312.989 279.062C314.322 278.33 314.605 276.193 313.623 274.299C312.64 272.405 310.757 271.459 309.425 272.191L246.617 306.7Z" fill="#6C63FF"/>
<path d="M254.355 321.616C253.023 322.348 252.739 324.484 253.722 326.378C254.704 328.272 256.587 329.218 257.92 328.486L320.728 293.978C322.06 293.246 322.344 291.109 321.361 289.215C320.378 287.321 318.495 286.375 317.163 287.107L254.355 321.616Z" fill="#6C63FF"/>
<path d="M266.552 187.923L323.463 191.499L339.401 142.586L289.484 131.732L266.552 187.923Z" fill="#2F2E41"/>
<path d="M307.596 175.554C320.167 175.554 330.357 165.067 330.357 152.131C330.357 139.194 320.167 128.707 307.596 128.707C295.025 128.707 284.835 139.194 284.835 152.131C284.835 165.067 295.025 175.554 307.596 175.554Z" fill="#FFB8B8"/>
<path d="M366.045 362.117L366.192 363.94C337.541 374.092 306.887 376.763 276.984 371.714L268.531 370.07L276.575 351.713L281.848 339.679L279.95 298.047L279.749 293.739L279.5 288.244L282.935 288.223L307.356 288.071L330.629 287.919L334.178 287.899C356.431 316.067 374.793 338.961 366.045 362.117Z" fill="#2F2E41"/>
<path d="M333.842 287.553L279.5 293.767L277.488 255.104C271.11 238.366 275.32 223.426 288.556 210.019L291.246 199.058C291.953 196.181 293.412 193.558 295.466 191.475C297.519 189.392 300.089 187.929 302.894 187.244C311.789 181.994 321.865 179.491 333.171 179.85C337.686 181.665 341.515 184.925 344.091 189.151C346.667 193.376 347.854 198.342 347.478 203.315C345.139 233.699 340.942 262.142 333.842 287.553Z" fill="#6C63FF"/>
<path d="M290.377 124.456C290.377 124.456 278.608 128.876 278.306 144.945C278.289 147.649 278.64 150.342 279.348 152.946C280.111 155.9 280.723 162.307 275.591 170.849C272.238 176.394 269.206 182.137 266.512 188.05L279.764 189.366L281.955 166.759C283.018 155.798 285.642 145.058 289.745 134.885L289.831 134.672C289.831 134.672 295.91 145.547 307.465 145.212L303.222 141.084C303.222 141.084 317.695 146.693 325.564 147.819C326.462 147.948 327.309 148.326 328.014 148.914C328.719 149.501 329.254 150.275 329.563 151.152C329.872 152.03 329.942 152.977 329.766 153.893C329.591 154.808 329.176 155.657 328.566 156.348C328.52 156.4 328.472 156.452 328.424 156.504C323.612 161.744 314.033 173.922 320.066 183.097C326.099 192.273 321.217 194.964 321.217 194.964L330.156 189.605L334.213 186.937L334.306 190.335L355.695 187.165C355.695 187.165 361.45 186.148 348.674 172.068C348.674 172.068 345.252 166.555 346.55 161.678C347.624 157.968 347.826 154.049 347.138 150.244C343.929 134.401 332.181 103.061 290.377 124.456Z" fill="#2F2E41"/>
<path d="M306.671 470.274C351.875 470.274 388.519 468.11 388.519 465.441C388.519 462.772 351.875 460.608 306.671 460.608C261.468 460.608 224.823 462.772 224.823 465.441C224.823 468.11 261.468 470.274 306.671 470.274Z" fill="#E6E6E6"/>
<path d="M0.498208 222.678C0.326371 222.725 0.179791 222.841 0.0906347 222.999C0.0014785 223.158 -0.022975 223.346 0.0226513 223.523L18.3313 294.239C18.3772 294.416 18.4895 294.566 18.6434 294.658C18.7973 294.75 18.9803 294.775 19.1523 294.728L71.014 280.508C71.1858 280.461 71.3324 280.346 71.4216 280.187C71.5107 280.029 71.5352 279.84 71.4895 279.663L53.181 208.948C53.135 208.771 53.0227 208.62 52.8688 208.528C52.7149 208.436 52.5319 208.411 52.36 208.458L0.498208 222.678Z" fill="#F2F2F2"/>
<path d="M13.242 234.357C12.5269 234.553 12.1596 235.54 12.4228 236.556C12.686 237.573 13.4817 238.241 14.1967 238.045L47.9069 228.802C48.6219 228.606 48.9892 227.619 48.726 226.602C48.4628 225.586 47.6671 224.918 46.9521 225.114L13.242 234.357Z" fill="white"/>
<path d="M15.3147 242.362C14.5996 242.558 14.2323 243.545 14.4955 244.562C14.7587 245.578 15.5544 246.246 16.2694 246.05L49.9796 236.807C50.6946 236.611 51.0619 235.624 50.7987 234.608C50.5355 233.591 49.7398 232.923 49.0248 233.12L15.3147 242.362Z" fill="white"/>
<path d="M17.3873 250.368C16.6722 250.564 16.305 251.551 16.5681 252.567C16.8313 253.584 17.627 254.252 18.3421 254.056L52.0522 244.813C52.7673 244.617 53.1345 243.63 52.8713 242.614C52.6082 241.597 51.8125 240.929 51.0974 241.125L17.3873 250.368Z" fill="white"/>
<path d="M19.46 258.374C18.7449 258.57 18.3777 259.556 18.6408 260.573C18.904 261.589 19.6997 262.257 20.4148 262.061L54.1249 252.818C54.8399 252.622 55.2072 251.636 54.944 250.619C54.6809 249.603 53.8852 248.935 53.1701 249.131L19.46 258.374Z" fill="white"/>
<path d="M21.5327 266.379C20.8176 266.575 20.4504 267.562 20.7135 268.578C20.9767 269.595 21.7724 270.263 22.4874 270.067L56.1976 260.824C56.9126 260.628 57.2799 259.641 57.0168 258.625C56.7536 257.608 55.9579 256.94 55.2428 257.136L21.5327 266.379Z" fill="white"/>
<path d="M23.6053 274.385C22.8902 274.581 22.523 275.568 22.7861 276.584C23.0493 277.601 23.845 278.269 24.5601 278.072L58.2702 268.83C58.9853 268.633 59.3525 267.647 59.0894 266.63C58.8262 265.614 58.0305 264.946 57.3154 265.142L23.6053 274.385Z" fill="white"/>
<path d="M133.035 471.84C133.035 471.928 133.335 472 133.705 472H204.82C205.19 472 205.49 471.928 205.49 471.84V459.042C205.49 458.954 205.19 458.882 204.82 458.882H133.705C133.335 458.882 133.035 458.954 133.035 459.042V471.84Z" fill="#F2F2F2"/>
<path d="M147.282 469.6C147.282 469.777 148.114 469.92 149.136 469.92C150.158 469.92 150.99 469.777 150.99 469.6V461.282C150.99 461.105 150.158 460.962 149.136 460.962C148.114 460.962 147.282 461.105 147.282 461.282V469.6Z" fill="white"/>
<path d="M155.332 469.6C155.332 469.777 156.164 469.92 157.187 469.92C158.209 469.92 159.041 469.777 159.041 469.6V461.282C159.041 461.105 158.209 460.962 157.187 460.962C156.164 460.962 155.332 461.105 155.332 461.282V469.6Z" fill="white"/>
<path d="M163.383 469.6C163.383 469.777 164.215 469.92 165.237 469.92C166.259 469.92 167.091 469.777 167.091 469.6V461.282C167.091 461.105 166.259 460.962 165.237 460.962C164.215 460.962 163.383 461.105 163.383 461.282V469.6Z" fill="white"/>
<path d="M171.434 469.6C171.434 469.777 172.266 469.92 173.288 469.92C174.31 469.92 175.142 469.777 175.142 469.6V461.282C175.142 461.105 174.31 460.962 173.288 460.962C172.266 460.962 171.434 461.105 171.434 461.282V469.6Z" fill="white"/>
<path d="M179.484 469.6C179.484 469.777 180.316 469.92 181.338 469.92C182.361 469.92 183.193 469.777 183.193 469.6V461.282C183.193 461.105 182.361 460.962 181.338 460.962C180.316 460.962 179.484 461.105 179.484 461.282V469.6Z" fill="white"/>
<path d="M187.535 469.6C187.535 469.777 188.367 469.92 189.389 469.92C190.411 469.92 191.243 469.777 191.243 469.6V461.282C191.243 461.105 190.411 460.962 189.389 460.962C188.367 460.962 187.535 461.105 187.535 461.282V469.6Z" fill="white"/>
<path d="M2.40058 171.647C2.24375 171.733 2.12662 171.88 2.07491 172.055C2.02319 172.23 2.04111 172.419 2.12473 172.581L35.6177 237.139C35.7016 237.3 35.8444 237.421 36.0146 237.474C36.1848 237.527 36.3685 237.509 36.5255 237.423L83.8711 211.409C84.028 211.323 84.1451 211.176 84.1968 211.001C84.2485 210.826 84.2306 210.637 84.147 210.475L50.654 145.917C50.57 145.756 50.4273 145.635 50.2571 145.582C50.0869 145.529 49.9032 145.547 49.7462 145.633L2.40058 171.647Z" fill="#E6E6E6"/>
<path d="M6.80148 173.533L37.451 232.609L79.4702 209.523L48.8208 150.446L6.80148 173.533ZM4.1389 174.996L4.1448 174.993L4.13824 174.996L4.1389 174.996Z" fill="white"/>
<path d="M17.396 180.028C16.7433 180.386 16.6043 181.434 17.0857 182.361C17.5671 183.289 18.4899 183.753 19.1426 183.394L49.9173 166.486C50.5701 166.127 50.7091 165.08 50.2276 164.152C49.7462 163.224 48.8235 162.761 48.1707 163.119L17.396 180.028Z" fill="#6C63FF"/>
<path d="M21.1877 187.336C20.5349 187.695 20.3959 188.742 20.8774 189.67C21.3588 190.598 22.2815 191.062 22.9343 190.703L53.709 173.794C54.3618 173.436 54.5008 172.389 54.0193 171.461C53.5379 170.533 52.6151 170.069 51.9624 170.428L21.1877 187.336Z" fill="#6C63FF"/>
<path d="M24.9794 194.645C24.3266 195.003 24.1876 196.05 24.6691 196.978C25.1505 197.906 26.0733 198.37 26.726 198.011L57.5007 181.103C58.1535 180.744 58.2925 179.697 57.811 178.769C57.3296 177.841 56.4069 177.378 55.7541 177.736L24.9794 194.645Z" fill="#6C63FF"/>
<path d="M28.771 201.953C28.1183 202.312 27.9793 203.359 28.4607 204.287C28.9421 205.215 29.8649 205.678 30.5176 205.32L61.2923 188.411C61.9451 188.053 62.0841 187.006 61.6026 186.078C61.1212 185.15 60.1985 184.686 59.5457 185.045L28.771 201.953Z" fill="#6C63FF"/>
<path d="M32.5627 209.262C31.9099 209.62 31.7709 210.667 32.2524 211.595C32.7338 212.523 33.6566 212.987 34.3093 212.628L65.084 195.72C65.7368 195.361 65.8758 194.314 65.3943 193.386C64.9129 192.458 63.9902 191.994 63.3374 192.353L32.5627 209.262Z" fill="#6C63FF"/>
<path d="M36.3543 216.57C35.7016 216.929 35.5626 217.976 36.044 218.904C36.5255 219.832 37.4482 220.295 38.101 219.937L68.8756 203.028C69.5284 202.669 69.6674 201.622 69.186 200.695C68.7045 199.767 67.7818 199.303 67.129 199.662L36.3543 216.57Z" fill="#6C63FF"/>
<path d="M462.464 336.624C462.311 336.531 462.128 336.504 461.956 336.55C461.784 336.595 461.636 336.709 461.546 336.867L425.366 399.871C425.276 400.029 425.25 400.217 425.294 400.394C425.339 400.571 425.449 400.723 425.602 400.817L471.809 428.916C471.962 429.009 472.145 429.036 472.317 428.99C472.489 428.945 472.637 428.831 472.727 428.673L508.907 365.669C508.997 365.511 509.023 365.323 508.979 365.146C508.934 364.969 508.824 364.817 508.671 364.723L462.464 336.624Z" fill="#E6E6E6"/>
<path d="M463.186 341.473L430.079 399.128L471.087 424.067L504.194 366.412L463.186 341.473ZM460.588 339.893L460.593 339.897L460.587 339.893L460.588 339.893Z" fill="white"/>
<path d="M463.302 354.163C462.665 353.776 461.724 354.198 461.204 355.104C460.684 356.009 460.779 357.062 461.416 357.449L491.45 375.714C492.087 376.101 493.028 375.679 493.548 374.773C494.068 373.868 493.973 372.816 493.336 372.428L463.302 354.163Z" fill="#6C63FF"/>
<path d="M459.207 361.296C458.57 360.909 457.628 361.331 457.108 362.236C456.588 363.142 456.683 364.194 457.32 364.582L487.354 382.846C487.991 383.234 488.932 382.812 489.452 381.906C489.972 381 489.878 379.948 489.241 379.561L459.207 361.296Z" fill="#6C63FF"/>
<path d="M455.111 368.429C454.474 368.041 453.532 368.463 453.012 369.369C452.492 370.275 452.587 371.327 453.224 371.714L483.258 389.979C483.895 390.366 484.836 389.944 485.356 389.039C485.877 388.133 485.782 387.081 485.145 386.693L455.111 368.429Z" fill="#6C63FF"/>
<path d="M451.015 375.561C450.378 375.174 449.437 375.596 448.916 376.501C448.396 377.407 448.491 378.459 449.128 378.847L479.162 397.111C479.799 397.499 480.741 397.077 481.261 396.171C481.781 395.265 481.686 394.213 481.049 393.826L451.015 375.561Z" fill="#6C63FF"/>
<path d="M446.919 382.694C446.282 382.306 445.341 382.728 444.821 383.634C444.301 384.54 444.395 385.592 445.032 385.979L475.066 404.244C475.704 404.631 476.645 404.209 477.165 403.304C477.685 402.398 477.59 401.346 476.953 400.958L446.919 382.694Z" fill="#6C63FF"/>
<path d="M442.823 389.826C442.186 389.439 441.245 389.861 440.725 390.767C440.205 391.672 440.3 392.724 440.937 393.112L470.971 411.377C471.608 411.764 472.549 411.342 473.069 410.436C473.589 409.531 473.494 408.478 472.857 408.091L442.823 389.826Z" fill="#6C63FF"/>
<path d="M295.602 221.965L294.904 226.411L287.551 273.055L282.935 288.223L281.312 293.56L279.95 298.048L263.399 352.451L258.858 363.431C256.366 364.379 254.225 366.105 252.734 368.367C251.242 370.63 250.475 373.315 250.539 376.048C250.603 378.781 251.496 381.425 253.092 383.61C254.689 385.796 256.909 387.413 259.442 388.236C261.975 389.059 264.695 389.047 267.222 388.201C269.748 387.355 271.954 385.718 273.532 383.518C275.109 381.319 275.979 378.667 276.02 375.933C276.061 373.2 275.271 370.521 273.761 368.273L306.155 290.722L307.355 288.071L311.032 279.959L317.976 226.045L318.412 222.655L295.602 221.965Z" fill="#FFB8B8"/>
<path d="M322.437 227.488C311.894 223.589 301.779 223.175 292.247 227.488L295.358 199.737C295.244 196.272 296.456 192.899 298.733 190.343C301.011 187.788 304.172 186.254 307.536 186.072C310.943 185.887 314.281 187.103 316.816 189.451C319.352 191.799 320.877 195.088 321.056 198.593L321.058 198.639L322.437 227.488Z" fill="#6C63FF"/>
</g>
<defs>
<clipPath id="clip0_4_30">
<rect width="509" height="472" fill="white"/>
</clipPath>
</defs>
</svg>
